<?xml version="1.0"?>
<svg xmlns="http://www.w3.org/2000/svg" viewBox="0 0 26 26" enable-background="new 0 0 26 26">
    <path d="M 7 0 C 6.4 0 6 0.4 6 1 L 6 4 C 6 4.6 6.4 5 7 5 C 7.6 5 8 4.6 8 4 L 8 1 C 8 0.4 7.6 0 7 0 z M 19 0 C 18.4 0 18 0.4 18 1 L 18 4 C 18 4.6 18.4 5 19 5 C 19.6 5 20 4.6 20 4 L 20 1 C 20 0.4 19.6 0 19 0 z M 3 2 C 1.3 2 0 3.3 0 5 L 0 23 C 0 24.7 1.3 26 3 26 L 23 26 C 24.7 26 26 24.7 26 23 L 26 5 C 26 3.3 24.7 2 23 2 L 21 2 L 21 4 C 21 5.1 20.1 6 19 6 C 17.9 6 17 5.1 17 4 L 17 2 L 9 2 L 9 4 C 9 5.1 8.1 6 7 6 C 5.9 6 5 5.1 5 4 L 5 2 L 3 2 z M 2 9 L 24 9 L 24 23 C 24 23.6 23.6 24 23 24 L 3 24 C 2.4 24 2 23.6 2 23 L 2 9 z M 16.8125 12.3125 C 14.9125 12.3125 13.59375 13.6125 13.59375 15.3125 C 13.59375 16.9125 14.7875 17.90625 16.1875 17.90625 C 16.9875 17.90625 17.50625 17.7125 17.90625 17.3125 C 17.70625 18.0125 17.4125 18.50625 16.8125 18.90625 C 16.3125 19.20625 15.69375 19.40625 15.09375 19.40625 L 14.40625 19.40625 L 14.40625 21 L 15.3125 21 C 16.6125 20.9 17.7 20.5125 18.5 19.8125 C 19.4 18.9125 20 17.70625 20 15.90625 C 20 14.00625 19.0125 12.3125 16.8125 12.3125 z M 9.1875 12.40625 L 7 13.40625 L 7.3125 14.90625 L 8.90625 14.09375 L 8.90625 20.90625 L 10.8125 20.90625 L 10.8125 12.40625 L 9.1875 12.40625 z M 16.3125 13.6875 C 16.4 13.678906 16.49375 13.675 16.59375 13.6875 C 17.49375 13.6875 17.8125 14.6 17.8125 15.5 C 17.8125 15.7 17.7875 15.9 17.6875 16 C 17.4875 16.3 17.09375 16.5 16.59375 16.5 C 15.79375 16.5 15.40625 15.79375 15.40625 15.09375 C 15.40625 14.30625 15.7 13.747656 16.3125 13.6875 z"/>
</svg>
