<?xml version="1.0"?>
<svg xmlns="http://www.w3.org/2000/svg" viewBox="0 0 26 26" enable-background="new 0 0 26 26">
    <path d="M 7 0 C 6.4 0 6 0.4 6 1 L 6 4 C 6 4.6 6.4 5 7 5 C 7.6 5 8 4.6 8 4 L 8 1 C 8 0.4 7.6 0 7 0 z M 19 0 C 18.4 0 18 0.4 18 1 L 18 4 C 18 4.6 18.4 5 19 5 C 19.6 5 20 4.6 20 4 L 20 1 C 20 0.4 19.6 0 19 0 z M 3 2 C 1.3 2 0 3.3 0 5 L 0 23 C 0 24.7 1.3 26 3 26 L 23 26 C 24.7 26 26 24.7 26 23 L 26 5 C 26 3.3 24.7 2 23 2 L 21 2 L 21 4 C 21 5.1 20.1 6 19 6 C 17.9 6 17 5.1 17 4 L 17 2 L 9 2 L 9 4 C 9 5.1 8.1 6 7 6 C 5.9 6 5 5.1 5 4 L 5 2 L 3 2 z M 2 9 L 24 9 L 24 23 C 24 23.6 23.6 24 23 24 L 3 24 C 2.4 24 2 23.6 2 23 L 2 9 z M 16.59375 12.09375 C 14.39375 12.09375 13.40625 14 13.40625 16.5 C 13.50625 18.9 14.39375 20.90625 16.59375 20.90625 C 18.69375 20.90625 19.8125 19.1 19.8125 16.5 C 19.8125 14.2 18.89375 12.19375 16.59375 12.09375 z M 9.1875 12.1875 C 7.9875 12.1875 7.00625 12.59375 6.40625 13.09375 L 7 14.5 C 7.4 14.2 8.1125 13.8125 8.8125 13.8125 C 9.8125 13.8125 10.1875 14.3 10.1875 15 C 10.1875 16 9.30625 16.89375 7.40625 18.59375 L 6.3125 19.59375 L 6.3125 20.6875 L 12.40625 20.6875 L 12.40625 19.09375 L 9.1875 19.09375 L 10 18.5 C 11.2 17.4 12.1875 16.2125 12.1875 14.8125 C 12.1875 13.3125 11.0875 12.1875 9.1875 12.1875 z M 16.59375 13.6875 C 17.39375 13.6875 17.8125 14.69375 17.8125 16.59375 C 17.8125 18.49375 17.39375 19.5 16.59375 19.5 C 15.89375 19.5 15.40625 18.49375 15.40625 16.59375 C 15.40625 14.59375 15.89375 13.6875 16.59375 13.6875 z"/>
</svg>
